:SAMPLES-PER-SECOND 30
:FULLY-SPECIFIED
:DEGREES
17
root  73.87 40.4232 -25.6094 -179.792 -86.4168 -179.937
RightUpLeg  -2.59329 -7.61465 -4.94205
RightLeg  6.13832 -4.35412 2.37924
RightFoot  -3.32081 -0.0935965 1.01338
RightToes  2.91037e-010 0 -3.6325e-017
Spine  1.89094 -0.158336 1.6219
Spine1  3.74464 -0.168377 -0.157681
HEad  -0.998023 2.99612 -0.701047
LeftShoulder1  1.17629 -1.82726 -15.1132
LeftArm  -22.5731 11.8461 -8.4172
LeftForeArm  15.0223 -10.5082 -1.13024
LeftHand  -0.244104 0.0205437 5.32207
RightShoulder  0.877314 0.906874 12.8839
RightArm  -18.858 -3.05219 3.72145
RightForeArm  -0.606559 6.08984 4.18791
RightHand  -1.08981 3.0113 -15.2264
LeftUpLeg  0.0257835 5.78477 3.75962
LeftLeg  3.53434 9.23377 -3.84905
LeftFoot  -3.73937 -0.021963 0.683463
LeftToes  -2.38291e-010 7.29328e-011 -2.49822e-011
18
root  73.7658 40.4078 -25.6811 -179.986 -86.4618 -179.809
RightUpLeg  -2.47071 -7.64223 -4.82856
RightLeg  6.50932 -4.31779 2.25016
RightFoot  -4.02622 -0.118588 1.42694
RightToes  2.91037e-010 0 -3.6325e-017
Spine  2.22105 -0.304749 1.75027
Spine1  3.75967 -0.298648 -0.264583
HEad  -0.685951 3.04168 -0.825704
LeftShoulder1  1.45923 -2.47813 -17.6392
LeftArm  -23.0459 14.2254 -9.32742
LeftForeArm  18.035 -15.4794 -2.00315
LeftHand  -0.244104 0.0205437 5.32207
RightShoulder  1.11487 1.62105 14.933
RightArm  -18.5949 -4.8895 5.34971
RightForeArm  -2.2376 7.77042 4.50583
RightHand  -1.18146 3.44412 -15.6928
LeftUpLeg  0.228609 5.87668 3.92252
LeftLeg  3.688 8.95137 -3.83076
LeftFoot  -4.08926 -0.00287042 0.428846
LeftToes  -2.38291e-010 7.29328e-011 -2.49822e-011
19
root  73.6374 40.3934 -25.7873 179.058 -86.3371 -178.834
RightUpLeg  -2.39433 -7.65071 -4.60238
RightLeg  6.84218 -4.2123 2.16339
RightFoot  -4.8332 -0.130988 1.72388
RightToes  2.91037e-010 0 -3.6325e-017
Spine  2.30136 -0.247357 2.17741
Spine1  4.08392 -0.157415 -0.657873
HEad  -0.278128 2.65056 -0.895826
LeftShoulder1  1.93132 -3.45087 -21.2882
LeftArm  -23.7358 15.9731 -9.80009
LeftForeArm  20.048 -19.7052 -3.00354
LeftHand  -0.244104 0.0205437 5.32207
RightShoulder  1.43798 2.38862 17.8234
RightArm  -17.8422 -7.2049 6.92901
RightForeArm  -2.09571 9.68906 4.78615
RightHand  -1.12185 3.2406 -15.2506
LeftUpLeg  0.425124 6.12322 4.26548
LeftLeg  3.8131 8.63726 -3.91433
LeftFoot  -4.43309 0.0277814 -0.0190096
LeftToes  -2.38291e-010 7.29328e-011 -2.49822e-011
20
root  73.4804 40.3816 -25.9277 178.679 -86.1581 -178.368
RightUpLeg  -2.373 -7.62621 -4.33775
RightLeg  7.21182 -4.16782 2.04982
RightFoot  -5.68378 -0.127718 1.80019
RightToes  2.91037e-010 0 -3.6325e-017
Spine  1.79563 -0.142809 2.68938
Spine1  5.19302 0.0403072 -1.08741
HEad  -0.188026 2.19591 -1.16093
LeftShoulder1  2.56735 -4.53794 -25.6696
LeftArm  -24.5771 16.9026 -10.3311
LeftForeArm  21.1269 -22.3188 -3.63407
LeftHand  -0.244104 0.0205437 5.32207
RightShoulder  1.8496 3.20985 21.2137
RightArm  -16.6636 -9.27288 8.69831
RightForeArm  -0.732059 11.1672 4.9087
RightHand  -0.992405 2.51465 -14.726
LeftUpLeg  0.60538 6.32709 4.58933
LeftLeg  3.92504 8.57574 -3.93685
LeftFoot  -4.69916 0.0470275 -0.307092
LeftToes  -2.38291e-010 7.29328e-011 -2.49822e-011
21
root  73.2897 40.3668 -26.0929 178.52 -86.1063 -178.118
RightUpLeg  -2.26679 -7.59728 -4.08249
RightLeg  7.56488 -4.29588 1.94496
RightFoot  -6.52563 -0.118007 1.75184
RightToes  2.91037e-010 0 -3.6325e-017
Spine  1.22094 -0.0887798 2.97311
Spine1  6.28626 0.0740643 -1.01776
HEad  0.456919 2.0627 -1.67125
LeftShoulder1  3.39925 -5.76296 -30.5616
LeftArm  -24.7621 17.3036 -10.9986
LeftForeArm  21.5778 -22.8437 -3.73792
LeftHand  -0.244104 0.0205437 5.32207
RightShoulder  2.35378 4.11651 24.7456
RightArm  -15.4481 -10.9053 10.5822
RightForeArm  0.955732 11.6308 4.95158
RightHand  -0.875321 1.75374 -14.3479
LeftUpLeg  0.779232 6.39962 4.84275
LeftLeg  4.10318 8.55123 -3.81048
LeftFoot  -5.05105 0.055804 -0.462407
LeftToes  -2.38291e-010 7.29328e-011 -2.49822e-011
22
root  73.0644 40.3417 -26.2802 178.462 -86.1007 -178.009
RightUpLeg  -2.04986 -7.63433 -3.85093
RightLeg  7.91843 -4.35112 1.89337
RightFoot  -7.33926 -0.110182 1.72901
RightToes  2.91037e-010 0 -3.6325e-017
Spine  0.848495 -0.0501433 3.1768
Spine1  7.10681 0.0336062 -0.713459
HEad  0.871151 2.13681 -2.62527
LeftShoulder1  4.34805 -6.96657 -35.417
LeftArm  -23.8138 17.2516 -12.0961
LeftForeArm  20.8731 -21.3791 -3.41669
LeftHand  -0.244104 0.0205437 5.32207
RightShoulder  2.99151 5.14714 28.5675
RightArm  -14.6596 -12.3732 12.3075
RightForeArm  2.13042 11.3475 4.99121
RightHand  -0.80649 1.47561 -13.759
LeftUpLeg  0.982774 6.46414 5.12943
LeftLeg  4.40121 8.31141 -3.65499
LeftFoot  -5.57193 0.0874473 -1.07601
LeftToes  -2.38291e-010 7.29328e-011 -2.49822e-011
23
root  72.8085 40.3015 -26.4941 179.766 -85.8727 -179.323
RightUpLeg  -1.90449 -7.76965 -3.65091
RightLeg  8.5156 -3.93932 1.80165
RightFoot  -8.08035 -0.10176 1.64756
RightToes  2.91037e-010 0 -3.6325e-017
Spine  0.292719 0.03002 3.66662
Spine1  8.45969 0.169503 -0.954614
HEad  0.825492 2.39175 -3.47137
LeftShoulder1  5.18391 -7.88601 -39.2842
LeftArm  -22.1407 16.6765 -14.2516
LeftForeArm  18.7141 -18.5777 -2.921
LeftHand  -0.244104 0.0205437 5.32207
RightShoulder  3.77785 6.24481 32.798
RightArm  -14.8302 -13.5738 14.1501
RightForeArm  2.70993 10.7314 4.93382
RightHand  -0.795377 1.70182 -13.1568
LeftUpLeg  1.21169 6.58025 5.37743
LeftLeg  4.9358 8.27007 -3.44027
LeftFoot  -6.13575 0.132425 -2.10018
LeftToes  -2.38291e-010 7.29328e-011 -2.49822e-011
24
root  72.5347 40.2296 -26.7292 -178.499 -85.4304 178.855
RightUpLeg  -1.9943 -7.96335 -3.38876
RightLeg  9.67004 -3.15958 1.58108
RightFoot  -8.7984 -0.0869168 1.21796
RightToes  2.91037e-010 0 -3.6325e-017
Spine  -0.0860528 0.108023 4.36899
Spine1  9.87409 0.415158 -1.51428
HEad  0.421624 2.7235 -4.06303
LeftShoulder1  5.8337 -8.53704 -42.0359
LeftArm  -20.4803 16.1683 -17.2938
LeftForeArm  16.7453 -15.4682 -2.63518
LeftHand  -0.244104 0.0205437 5.32207
RightShoulder  4.57679 7.21049 36.7248
RightArm  -15.8155 -14.3423 16.7339
RightForeArm  3.17238 9.69936 4.70518
RightHand  -0.818507 2.02156 -12.9707
LeftUpLeg  1.20964 7.01442 5.45477
LeftLeg  6.23996 8.3638 -2.76209
LeftFoot  -6.93145 0.148267 -2.75178
LeftToes  -2.38291e-010 7.29328e-011 -2.49822e-011
25
root  72.2637 40.0919 -26.9593 179.234 -85.2186 -179.037
RightUpLeg  -2.24456 -8.26597 -2.84637
RightLeg  11.4225 -2.5926 1.37487
RightFoot  -9.75823 -0.0724481 0.42683
RightToes  2.91037e-010 0 -3.6325e-017
Spine  0.551059 0.0922992 5.07104
Spine1  10.0122 0.424298 -1.26179
HEad  0.555557 3.33751 -4.77925
LeftShoulder1  6.54914 -9.26617 -44.6406
LeftArm  -19.2045 16.597 -20.276
LeftForeArm  16.7425 -13.0766 -2.64123
LeftHand  -0.244104 0.0205437 5.32207
RightShoulder  5.18742 7.87729 39.4785
RightArm  -16.9188 -14.932 20.131
RightForeArm  3.6532 8.08245 4.33316
RightHand  -0.827272 2.16175 -12.8748
LeftUpLeg  0.392347 8.68458 5.55397
LeftLeg  9.25572 6.89288 -1.18167
LeftFoot  -8.47624 0.131739 -3.30628
LeftToes  -2.38291e-010 7.29328e-011 -2.49822e-011
26
root  72.0091 39.8786 -27.1593 170.744 -85.4957 -170.749
RightUpLeg  -2.4693 -8.90748 -2.03497
RightLeg  13.4945 -2.41206 1.36981
RightFoot  -11.1727 -0.0750795 -0.247801
RightToes  2.91037e-010 0 -3.6325e-017
Spine  1.9401 -0.161294 6.27303
Spine1  9.27584 0.154199 -0.605696
HEad  0.692789 3.93234 -5.77426
LeftShoulder1  7.30361 -10.0421 -47.0333
LeftArm  -18.7013 17.8927 -23.271
LeftForeArm  18.2791 -11.9627 -2.67265
LeftHand  -0.244104 0.0205437 5.32207
RightShoulder  5.69253 8.43429 41.4533
RightArm  -18.0185 -15.2521 23.7598
RightForeArm  3.66225 5.9842 3.88101
RightHand  -0.804092 2.19142 -12.4748
LeftUpLeg  -1.66371 10.3696 5.87079
LeftLeg  14.4137 4.5968 1.03096
LeftFoot  -10.3318 0.104566 -5.00373
LeftToes  -2.38291e-010 7.29328e-011 -2.49822e-011
27
root  71.7556 39.6485 -27.3317 160.687 -85.8991 -160.938
RightUpLeg  -2.55176 -9.86367 -1.39887
RightLeg  15.495 -2.19404 1.47698
RightFoot  -12.7968 -0.0919166 -0.451254
RightToes  2.91037e-010 0 -3.6325e-017
Spine  2.66767 -0.652504 8.47496
Spine1  9.82892 0.0504869 -1.442
HEad  -0.178496 4.14047 -6.37661
LeftShoulder1  7.64596 -10.4537 -47.8001
LeftArm  -19.4272 18.9582 -27.3371
LeftForeArm  19.7262 -11.8035 -2.55122
LeftHand  -0.244104 0.0205437 5.32207
RightShoulder  6.39568 9.22469 43.8191
RightArm  -19.3499 -14.4762 26.962
RightForeArm  2.67286 3.61653 3.41711
RightHand  -0.781994 2.14971 -12.2043
LeftUpLeg  -4.75355 8.13287 6.25762
LeftLeg  21.3982 6.40041 3.20129
LeftFoot  -10.6671 0.111689 -7.28126
LeftToes  -2.38291e-010 7.29328e-011 -2.49822e-011
28
root  71.4574 39.4848 -27.4861 157.122 -86.1823 -157.725
RightUpLeg  -2.2905 -10.678 -1.28817
RightLeg  17.0168 -1.79301 1.4437
RightFoot  -14.1269 -0.105596 -0.409997
RightToes  2.91037e-010 0 -3.6325e-017
Spine  2.42777 -1.04967 11.0028
Spine1  12.0841 0.451031 -3.7727
HEad  -1.88723 3.8122 -6.25305
LeftShoulder1  7.50145 -10.449 -46.894
LeftArm  -20.5943 19.1879 -32.2256
LeftForeArm  20.4209 -11.7102 -2.4264
LeftHand  -0.244104 0.0205437 5.32207
RightShoulder  7.23844 10.1352 46.4028
RightArm  -20.1478 -12.4484 29.4972
RightForeArm  1.45506 1.46958 3.13485
RightHand  -0.775605 1.9315 -12.4512
LeftUpLeg  -8.39121 5.32442 6.13276
LeftLeg  29.472 9.47116 6.08973
LeftFoot  -8.40993 0.242274 -7.74559
LeftToes  -2.38291e-010 7.29328e-011 -2.49822e-011
